<?xml version="1.0" encoding="UTF-8" standalone="no"?>
<!DOCTYPE svg PUBLIC "-//W3C//DTD SVG 1.1//EN"
 "http://www.w3.org/Graphics/SVG/1.1/DTD/svg11.dtd">
<!-- Generated by graphviz version 2.43.0 (0)
 -->
<!-- Title: %3 Pages: 1 -->
<svg width="410pt" height="188pt"
 viewBox="0.00 0.00 410.09 188.00" xmlns="http://www.w3.org/2000/svg" xmlns:xlink="http://www.w3.org/1999/xlink">
<g id="graph0" class="graph" transform="scale(1 1) rotate(0) translate(4 184)">
<title>%3</title>
<polygon fill="white" stroke="transparent" points="-4,4 -4,-184 406.09,-184 406.09,4 -4,4"/>
<!-- 1 -->
<g id="node1" class="node">
<title>1</title>
<ellipse fill="none" stroke="black" cx="201.85" cy="-162" rx="44.39" ry="18"/>
<text text-anchor="middle" x="201.85" y="-158.3" font-family="Times,serif" font-size="14.00">PRED1</text>
</g>
<!-- 5 -->
<g id="node2" class="node">
<title>5</title>
<ellipse fill="none" stroke="black" cx="148.85" cy="-90" rx="44.39" ry="18"/>
<text text-anchor="middle" x="148.85" y="-86.3" font-family="Times,serif" font-size="14.00">PRED2</text>
</g>
<!-- 1&#45;&gt;5 -->
<g id="edge1" class="edge">
<title>1&#45;&gt;5</title>
<path fill="none" stroke="black" d="M189.29,-144.41C182.75,-135.78 174.64,-125.06 167.39,-115.5"/>
<polygon fill="black" stroke="black" points="170.14,-113.33 161.32,-107.47 164.56,-117.56 170.14,-113.33"/>
</g>
<!-- 2 -->
<g id="node5" class="node">
<title>2</title>
<ellipse fill="none" stroke="black" cx="254.85" cy="-90" rx="44.39" ry="18"/>
<text text-anchor="middle" x="254.85" y="-86.3" font-family="Times,serif" font-size="14.00">PRED3</text>
</g>
<!-- 1&#45;&gt;2 -->
<g id="edge2" class="edge">
<title>1&#45;&gt;2</title>
<path fill="none" stroke="black" d="M214.41,-144.41C220.94,-135.78 229.06,-125.06 236.3,-115.5"/>
<polygon fill="black" stroke="black" points="239.13,-117.56 242.38,-107.47 233.55,-113.33 239.13,-117.56"/>
</g>
<!-- 7 -->
<g id="node3" class="node">
<title>7</title>
<ellipse fill="none" stroke="black" cx="44.85" cy="-18" rx="44.69" ry="18"/>
<text text-anchor="middle" x="44.85" y="-14.3" font-family="Times,serif" font-size="14.00">THEN2</text>
</g>
<!-- 5&#45;&gt;7 -->
<g id="edge3" class="edge">
<title>5&#45;&gt;7</title>
<path fill="none" stroke="black" d="M127.04,-74.33C112.03,-64.22 91.88,-50.66 75.28,-39.49"/>
<polygon fill="black" stroke="black" points="77.23,-36.58 66.98,-33.9 73.32,-42.38 77.23,-36.58"/>
</g>
<!-- 6 -->
<g id="node4" class="node">
<title>6</title>
<ellipse fill="none" stroke="black" cx="149.85" cy="-18" rx="42.49" ry="18"/>
<text text-anchor="middle" x="149.85" y="-14.3" font-family="Times,serif" font-size="14.00">ELSE2</text>
</g>
<!-- 5&#45;&gt;6 -->
<g id="edge4" class="edge">
<title>5&#45;&gt;6</title>
<path fill="none" stroke="black" d="M149.09,-71.7C149.2,-63.98 149.34,-54.71 149.46,-46.11"/>
<polygon fill="black" stroke="black" points="152.96,-46.15 149.6,-36.1 145.96,-46.05 152.96,-46.15"/>
</g>
<!-- 4 -->
<g id="node6" class="node">
<title>4</title>
<ellipse fill="none" stroke="black" cx="254.85" cy="-18" rx="44.69" ry="18"/>
<text text-anchor="middle" x="254.85" y="-14.3" font-family="Times,serif" font-size="14.00">THEN3</text>
</g>
<!-- 2&#45;&gt;4 -->
<g id="edge5" class="edge">
<title>2&#45;&gt;4</title>
<path fill="none" stroke="black" d="M254.85,-71.7C254.85,-63.98 254.85,-54.71 254.85,-46.11"/>
<polygon fill="black" stroke="black" points="258.35,-46.1 254.85,-36.1 251.35,-46.1 258.35,-46.1"/>
</g>
<!-- 3 -->
<g id="node7" class="node">
<title>3</title>
<ellipse fill="none" stroke="black" cx="359.85" cy="-18" rx="42.49" ry="18"/>
<text text-anchor="middle" x="359.85" y="-14.3" font-family="Times,serif" font-size="14.00">ELSE3</text>
</g>
<!-- 2&#45;&gt;3 -->
<g id="edge6" class="edge">
<title>2&#45;&gt;3</title>
<path fill="none" stroke="black" d="M276.86,-74.33C292.12,-64.15 312.64,-50.47 329.45,-39.26"/>
<polygon fill="black" stroke="black" points="331.48,-42.11 337.86,-33.65 327.6,-36.29 331.48,-42.11"/>
</g>
</g>
</svg>
