<?xml version="1.0" encoding="UTF-8" standalone="no"?>
<!DOCTYPE svg PUBLIC "-//W3C//DTD SVG 1.1//EN"
 "http://www.w3.org/Graphics/SVG/1.1/DTD/svg11.dtd">
<!-- Generated by graphviz version 2.43.0 (0)
 -->
<!-- Title: %3 Pages: 1 -->
<svg width="322pt" height="260pt"
 viewBox="0.00 0.00 321.84 260.00" xmlns="http://www.w3.org/2000/svg" xmlns:xlink="http://www.w3.org/1999/xlink">
<g id="graph0" class="graph" transform="scale(1 1) rotate(0) translate(4 256)">
<title>%3</title>
<polygon fill="white" stroke="transparent" points="-4,4 -4,-256 317.84,-256 317.84,4 -4,4"/>
<!-- 1 -->
<g id="node1" class="node">
<title>1</title>
<ellipse fill="none" stroke="black" cx="215" cy="-234" rx="44.39" ry="18"/>
<text text-anchor="middle" x="215" y="-230.3" font-family="Times,serif" font-size="14.00">PRED1</text>
</g>
<!-- 3 -->
<g id="node2" class="node">
<title>3</title>
<ellipse fill="none" stroke="black" cx="162" cy="-162" rx="44.39" ry="18"/>
<text text-anchor="middle" x="162" y="-158.3" font-family="Times,serif" font-size="14.00">PRED2</text>
</g>
<!-- 1&#45;&gt;3 -->
<g id="edge1" class="edge">
<title>1&#45;&gt;3</title>
<path fill="none" stroke="black" d="M202.44,-216.41C195.9,-207.78 187.79,-197.06 180.54,-187.5"/>
<polygon fill="black" stroke="black" points="183.29,-185.33 174.47,-179.47 177.71,-189.56 183.29,-185.33"/>
</g>
<!-- 2 -->
<g id="node7" class="node">
<title>2</title>
<ellipse fill="none" stroke="black" cx="269" cy="-162" rx="44.69" ry="18"/>
<text text-anchor="middle" x="269" y="-158.3" font-family="Times,serif" font-size="14.00">THEN1</text>
</g>
<!-- 1&#45;&gt;2 -->
<g id="edge2" class="edge">
<title>1&#45;&gt;2</title>
<path fill="none" stroke="black" d="M227.79,-216.41C234.45,-207.78 242.72,-197.06 250.1,-187.5"/>
<polygon fill="black" stroke="black" points="252.95,-189.53 256.29,-179.47 247.41,-185.25 252.95,-189.53"/>
</g>
<!-- 5 -->
<g id="node3" class="node">
<title>5</title>
<ellipse fill="none" stroke="black" cx="109" cy="-90" rx="44.39" ry="18"/>
<text text-anchor="middle" x="109" y="-86.3" font-family="Times,serif" font-size="14.00">PRED3</text>
</g>
<!-- 3&#45;&gt;5 -->
<g id="edge3" class="edge">
<title>3&#45;&gt;5</title>
<path fill="none" stroke="black" d="M149.44,-144.41C142.9,-135.78 134.79,-125.06 127.54,-115.5"/>
<polygon fill="black" stroke="black" points="130.29,-113.33 121.47,-107.47 124.71,-117.56 130.29,-113.33"/>
</g>
<!-- 4 -->
<g id="node6" class="node">
<title>4</title>
<ellipse fill="none" stroke="black" cx="216" cy="-90" rx="44.69" ry="18"/>
<text text-anchor="middle" x="216" y="-86.3" font-family="Times,serif" font-size="14.00">THEN2</text>
</g>
<!-- 3&#45;&gt;4 -->
<g id="edge4" class="edge">
<title>3&#45;&gt;4</title>
<path fill="none" stroke="black" d="M174.79,-144.41C181.45,-135.78 189.72,-125.06 197.1,-115.5"/>
<polygon fill="black" stroke="black" points="199.95,-117.53 203.29,-107.47 194.41,-113.25 199.95,-117.53"/>
</g>
<!-- 7 -->
<g id="node4" class="node">
<title>7</title>
<ellipse fill="none" stroke="black" cx="52" cy="-18" rx="51.99" ry="18"/>
<text text-anchor="middle" x="52" y="-14.3" font-family="Times,serif" font-size="14.00">FINALLY</text>
</g>
<!-- 5&#45;&gt;7 -->
<g id="edge5" class="edge">
<title>5&#45;&gt;7</title>
<path fill="none" stroke="black" d="M95.78,-72.76C88.68,-64.06 79.8,-53.15 71.89,-43.43"/>
<polygon fill="black" stroke="black" points="74.57,-41.18 65.54,-35.63 69.14,-45.6 74.57,-41.18"/>
</g>
<!-- 6 -->
<g id="node5" class="node">
<title>6</title>
<ellipse fill="none" stroke="black" cx="167" cy="-18" rx="44.69" ry="18"/>
<text text-anchor="middle" x="167" y="-14.3" font-family="Times,serif" font-size="14.00">THEN3</text>
</g>
<!-- 5&#45;&gt;6 -->
<g id="edge6" class="edge">
<title>5&#45;&gt;6</title>
<path fill="none" stroke="black" d="M122.45,-72.76C129.66,-64.06 138.7,-53.15 146.75,-43.43"/>
<polygon fill="black" stroke="black" points="149.53,-45.57 153.21,-35.63 144.14,-41.1 149.53,-45.57"/>
</g>
</g>
</svg>
