<?xml version="1.0" encoding="UTF-8" standalone="no"?>
<!DOCTYPE svg PUBLIC "-//W3C//DTD SVG 1.1//EN"
 "http://www.w3.org/Graphics/SVG/1.1/DTD/svg11.dtd">
<!-- Generated by graphviz version 2.43.0 (0)
 -->
<!-- Title: %3 Pages: 1 -->
<svg width="532pt" height="332pt"
 viewBox="0.00 0.00 531.84 332.00" xmlns="http://www.w3.org/2000/svg" xmlns:xlink="http://www.w3.org/1999/xlink">
<g id="graph0" class="graph" transform="scale(1 1) rotate(0) translate(4 328)">
<title>%3</title>
<polygon fill="white" stroke="transparent" points="-4,4 -4,-328 527.84,-328 527.84,4 -4,4"/>
<!-- 1 -->
<g id="node1" class="node">
<title>1</title>
<ellipse fill="none" stroke="black" cx="321" cy="-306" rx="44.39" ry="18"/>
<text text-anchor="middle" x="321" y="-302.3" font-family="Times,serif" font-size="14.00">PRED1</text>
</g>
<!-- 5 -->
<g id="node2" class="node">
<title>5</title>
<ellipse fill="none" stroke="black" cx="268" cy="-234" rx="44.39" ry="18"/>
<text text-anchor="middle" x="268" y="-230.3" font-family="Times,serif" font-size="14.00">PRED2</text>
</g>
<!-- 1&#45;&gt;5 -->
<g id="edge1" class="edge">
<title>1&#45;&gt;5</title>
<path fill="none" stroke="black" d="M308.44,-288.41C301.9,-279.78 293.79,-269.06 286.54,-259.5"/>
<polygon fill="black" stroke="black" points="289.29,-257.33 280.47,-251.47 283.71,-261.56 289.29,-257.33"/>
</g>
<!-- 2 -->
<g id="node9" class="node">
<title>2</title>
<ellipse fill="none" stroke="black" cx="374" cy="-234" rx="44.39" ry="18"/>
<text text-anchor="middle" x="374" y="-230.3" font-family="Times,serif" font-size="14.00">PRED3</text>
</g>
<!-- 1&#45;&gt;2 -->
<g id="edge2" class="edge">
<title>1&#45;&gt;2</title>
<path fill="none" stroke="black" d="M333.56,-288.41C340.09,-279.78 348.21,-269.06 355.45,-259.5"/>
<polygon fill="black" stroke="black" points="358.28,-261.56 361.53,-251.47 352.7,-257.33 358.28,-261.56"/>
</g>
<!-- 7 -->
<g id="node3" class="node">
<title>7</title>
<ellipse fill="none" stroke="black" cx="162" cy="-162" rx="44.39" ry="18"/>
<text text-anchor="middle" x="162" y="-158.3" font-family="Times,serif" font-size="14.00">PRED4</text>
</g>
<!-- 5&#45;&gt;7 -->
<g id="edge3" class="edge">
<title>5&#45;&gt;7</title>
<path fill="none" stroke="black" d="M245.77,-218.33C230.37,-208.15 209.65,-194.47 192.68,-183.26"/>
<polygon fill="black" stroke="black" points="194.46,-180.25 184.19,-177.65 190.6,-186.09 194.46,-180.25"/>
</g>
<!-- 6 -->
<g id="node8" class="node">
<title>6</title>
<ellipse fill="none" stroke="black" cx="269" cy="-162" rx="44.69" ry="18"/>
<text text-anchor="middle" x="269" y="-158.3" font-family="Times,serif" font-size="14.00">THEN2</text>
</g>
<!-- 5&#45;&gt;6 -->
<g id="edge4" class="edge">
<title>5&#45;&gt;6</title>
<path fill="none" stroke="black" d="M268.24,-215.7C268.35,-207.98 268.49,-198.71 268.61,-190.11"/>
<polygon fill="black" stroke="black" points="272.11,-190.15 268.75,-180.1 265.11,-190.05 272.11,-190.15"/>
</g>
<!-- 9 -->
<g id="node4" class="node">
<title>9</title>
<ellipse fill="none" stroke="black" cx="109" cy="-90" rx="44.39" ry="18"/>
<text text-anchor="middle" x="109" y="-86.3" font-family="Times,serif" font-size="14.00">PRED5</text>
</g>
<!-- 7&#45;&gt;9 -->
<g id="edge5" class="edge">
<title>7&#45;&gt;9</title>
<path fill="none" stroke="black" d="M149.44,-144.41C142.9,-135.78 134.79,-125.06 127.54,-115.5"/>
<polygon fill="black" stroke="black" points="130.29,-113.33 121.47,-107.47 124.71,-117.56 130.29,-113.33"/>
</g>
<!-- 8 -->
<g id="node7" class="node">
<title>8</title>
<ellipse fill="none" stroke="black" cx="216" cy="-90" rx="44.69" ry="18"/>
<text text-anchor="middle" x="216" y="-86.3" font-family="Times,serif" font-size="14.00">THEN4</text>
</g>
<!-- 7&#45;&gt;8 -->
<g id="edge6" class="edge">
<title>7&#45;&gt;8</title>
<path fill="none" stroke="black" d="M174.79,-144.41C181.45,-135.78 189.72,-125.06 197.1,-115.5"/>
<polygon fill="black" stroke="black" points="199.95,-117.53 203.29,-107.47 194.41,-113.25 199.95,-117.53"/>
</g>
<!-- 11 -->
<g id="node5" class="node">
<title>11</title>
<ellipse fill="none" stroke="black" cx="52" cy="-18" rx="51.99" ry="18"/>
<text text-anchor="middle" x="52" y="-14.3" font-family="Times,serif" font-size="14.00">FINALLY</text>
</g>
<!-- 9&#45;&gt;11 -->
<g id="edge7" class="edge">
<title>9&#45;&gt;11</title>
<path fill="none" stroke="black" d="M95.78,-72.76C88.68,-64.06 79.8,-53.15 71.89,-43.43"/>
<polygon fill="black" stroke="black" points="74.57,-41.18 65.54,-35.63 69.14,-45.6 74.57,-41.18"/>
</g>
<!-- 10 -->
<g id="node6" class="node">
<title>10</title>
<ellipse fill="none" stroke="black" cx="167" cy="-18" rx="44.69" ry="18"/>
<text text-anchor="middle" x="167" y="-14.3" font-family="Times,serif" font-size="14.00">THEN5</text>
</g>
<!-- 9&#45;&gt;10 -->
<g id="edge8" class="edge">
<title>9&#45;&gt;10</title>
<path fill="none" stroke="black" d="M122.45,-72.76C129.66,-64.06 138.7,-53.15 146.75,-43.43"/>
<polygon fill="black" stroke="black" points="149.53,-45.57 153.21,-35.63 144.14,-41.1 149.53,-45.57"/>
</g>
<!-- 4 -->
<g id="node10" class="node">
<title>4</title>
<ellipse fill="none" stroke="black" cx="374" cy="-162" rx="42.49" ry="18"/>
<text text-anchor="middle" x="374" y="-158.3" font-family="Times,serif" font-size="14.00">ELSE3</text>
</g>
<!-- 2&#45;&gt;4 -->
<g id="edge9" class="edge">
<title>2&#45;&gt;4</title>
<path fill="none" stroke="black" d="M374,-215.7C374,-207.98 374,-198.71 374,-190.11"/>
<polygon fill="black" stroke="black" points="377.5,-190.1 374,-180.1 370.5,-190.1 377.5,-190.1"/>
</g>
<!-- 3 -->
<g id="node11" class="node">
<title>3</title>
<ellipse fill="none" stroke="black" cx="479" cy="-162" rx="44.69" ry="18"/>
<text text-anchor="middle" x="479" y="-158.3" font-family="Times,serif" font-size="14.00">THEN3</text>
</g>
<!-- 2&#45;&gt;3 -->
<g id="edge10" class="edge">
<title>2&#45;&gt;3</title>
<path fill="none" stroke="black" d="M396.01,-218.33C411.16,-208.22 431.51,-194.66 448.26,-183.49"/>
<polygon fill="black" stroke="black" points="450.27,-186.36 456.65,-177.9 446.39,-180.53 450.27,-186.36"/>
</g>
</g>
</svg>
